<svg id="Layer_1" data-name="Layer 1" xmlns="http://www.w3.org/2000/svg" viewBox="0 0 491.52 491.52"><defs><style>.cls-1{fill:#fff;}.cls-2{fill:none;}</style></defs><title>internet</title><g id="Layer_1-2" data-name="Layer_1"><path class="cls-1" d="M426.24,245.76a180.48,180.48,0,1,1-52.86-127.62,179.92,179.92,0,0,1,52.86,127.62ZM368,368a172.26,172.26,0,0,0,50.61-122.19h0A172.81,172.81,0,1,0,368,368Z"/><path class="cls-1" d="M378.68,211.16A20.73,20.73,0,0,1,376,221.28a20.18,20.18,0,0,1-17.61,10.2,20.64,20.64,0,0,1-10.16-2.74c-3.79-2.15-7.58-4.17-11.37-6s-7.68-3.61-11.7-5.22a223,223,0,0,0-24.2-8.08c-8.12-2.22-16.47-4-25-5.53q-8.82-1.56-17.59-2.58-9-1.06-17.92-1.59-9.42-.57-18.59-.62t-18.61.43c-7,.36-14.11.94-21.22,1.8s-14,2-20.89,3.49c-4.5,1-9,2.17-13.42,3.36l-1.87.5a22.48,22.48,0,0,1-5.66.8,19.64,19.64,0,0,1-5.79-.8,20.28,20.28,0,0,1-11-30.95,19.55,19.55,0,0,1,10-7.48c2.48-.82,5.09-1.58,7.76-2.29s5.17-1.31,7.75-1.91c6.46-1.49,12.91-2.69,19.35-3.66s12.85-1.71,19.5-2.31q10.41-1,20.82-1.27t20.81,0a373.87,373.87,0,0,1,50.74,4.76A302.68,302.68,0,0,1,329.71,176q10.08,3.48,19.59,7.76a206.53,206.53,0,0,1,18.78,9.66,22,22,0,0,1,6.4,5.52,19.63,19.63,0,0,1,3.63,7.82,24.52,24.52,0,0,1,.43,2.86c0,.44.09.87.11,1l0,.5Zm-9.3,6.34a12.84,12.84,0,0,0,1.64-6.14c0-.42-.08-.69-.1-1a18.82,18.82,0,0,0-.28-2,12.09,12.09,0,0,0-2.22-4.82,14.31,14.31,0,0,0-4.21-3.57,195.09,195.09,0,0,0-18.06-9.3c-6.25-2.83-12.56-5.32-18.93-7.52a295.39,295.39,0,0,0-48.3-12.13,367.78,367.78,0,0,0-49.72-4.67q-10.2-.28-20.39,0t-20.34,1.24c-6.25.57-12.59,1.31-19.05,2.28s-12.61,2.12-18.78,3.54c-2.52.59-5,1.19-7.51,1.85s-4.83,1.35-7.31,2.17a11.87,11.87,0,0,0-6.07,4.54,12.47,12.47,0,0,0-2.21,7.45,12.73,12.73,0,0,0,2.62,7.41,12.51,12.51,0,0,0,10,4.89,15.28,15.28,0,0,0,3.74-.56l1.87-.5c4.58-1.23,9.15-2.45,13.78-3.45,7.16-1.55,14.37-2.72,21.61-3.61s14.4-1.45,21.73-1.83q9.43-.5,19-.43t19,.62q9.25.56,18.33,1.62t18,2.64c8.57,1.51,17.13,3.38,25.68,5.71a229.69,229.69,0,0,1,25,8.35c4.1,1.64,8.17,3.48,12.21,5.46s8,4.07,11.79,6.24a13,13,0,0,0,6.41,1.75,12.57,12.57,0,0,0,10.92-6.33Z"/><path class="cls-1" d="M215,254.42a230,230,0,0,0-31,2.18A199.8,199.8,0,0,0,155,262.84a20.25,20.25,0,0,1-6.06.88,17.42,17.42,0,0,1-17.14-17.88,17.92,17.92,0,0,1,3.45-10.06,16.67,16.67,0,0,1,8.59-6c2.9-.89,5.79-1.7,8.66-2.46s5.88-1.48,8.91-2.15q11-2.44,22-3.76t22.18-1.74a275.54,275.54,0,0,1,47.36,2.22,270,270,0,0,1,46.27,10.46,226.48,226.48,0,0,1,22.65,8.62,203.11,203.11,0,0,1,21.55,11.13c.52.3,1.25.75,2,1.2l.11.06A17.15,17.15,0,0,1,353.32,264a17.88,17.88,0,0,1-2,13.36,17.23,17.23,0,0,1-10.68,7.85,18,18,0,0,1-13.22-1.92l-3-1.69c-2.76-1.58-5.51-3.15-8.31-4.58a187.77,187.77,0,0,0-26.95-11.14,229.29,229.29,0,0,0-28.37-7.21c-7.47-1.41-14.94-2.46-22.5-3.16s-15.37-1.07-23.34-1.1ZM182.88,249a237.45,237.45,0,0,1,32.06-2.24h0c8.22,0,16.19.4,24,1.13s15.59,1.81,23.22,3.25a235.86,235.86,0,0,1,29.33,7.45,194.81,194.81,0,0,1,28.06,11.59c2.94,1.5,5.79,3.13,8.64,4.76,2,1.17,1.86,1.08,2.95,1.69a10.41,10.41,0,0,0,7.67,1.14,9.57,9.57,0,0,0,5.94-4.4,10.1,10.1,0,0,0,1.08-7.57,9.56,9.56,0,0,0-4.4-5.95l-.11-.06c-.55-.34-1.1-.68-1.89-1.14a198.31,198.31,0,0,0-20.77-10.74,217.86,217.86,0,0,0-21.87-8.32,262.17,262.17,0,0,0-44.95-10.16,268.66,268.66,0,0,0-46.07-2.16c-7.13.27-14.3.82-21.52,1.71s-14.3,2.07-21.23,3.61q-4.27.94-8.64,2.09t-8.36,2.37a9.05,9.05,0,0,0-4.66,3.28,10.3,10.3,0,0,0-1.95,5.74,9.62,9.62,0,0,0,1.6,5.56,9.75,9.75,0,0,0,8,4.43,12.61,12.61,0,0,0,3.81-.58,208.47,208.47,0,0,1,30-6.48Z"/><path class="cls-1" d="M218.14,276.69a246.71,246.71,0,0,1,35,2.74,204.45,204.45,0,0,1,34.2,8.27,189.2,189.2,0,0,1,18.2,7.22,182.25,182.25,0,0,1,17.34,9.1h0l.27.17a27.15,27.15,0,0,1,2.9,1.89A14.64,14.64,0,0,1,331.6,315a14.8,14.8,0,0,1-1.84,10.38,14.51,14.51,0,0,1-8.16,6.46,14.7,14.7,0,0,1-10.4-.57,26.1,26.1,0,0,1-2.86-1.56l-.46-.27h0a157,157,0,0,0-28.43-13.22,171,171,0,0,0-30.5-7.51q-9.76-1.5-19.41-2T210,306.55c-8.47.33-16.89,1.09-25.27,2.22s-16.74,2.64-25,4.47c-.91.2-1.84.39-2.81.54a21.82,21.82,0,0,1-3.15.28,14.35,14.35,0,0,1-14.29-11.78,15,15,0,0,1,1.47-9.84,14.32,14.32,0,0,1,7.38-6.6,17.62,17.62,0,0,1,2-.65h0c.67-.19,1.24-.32,1.78-.45,6.94-1.55,13.92-2.92,21-4.05s14.18-2,21.2-2.64c5.22-.44,10.8-.71,16.38-1,2.31-.11,4.63-.22,7.27-.37ZM252,287a240.36,240.36,0,0,0-33.7-2.68c-2.22.13-4.76.25-7.29.37-5.26.26-10.52.52-16.11,1q-10.5.9-20.63,2.55c-6.84,1.1-13.66,2.44-20.47,4-.53.12-1,.24-1.44.35h0c-.4.12-.79.24-1.17.39a6.75,6.75,0,0,0-3.48,3.09,7.44,7.44,0,0,0-.69,4.89,6.71,6.71,0,0,0,6.7,5.48,14.75,14.75,0,0,0,2-.19c.76-.12,1.55-.28,2.33-.45,8.53-1.89,17.08-3.44,25.64-4.59s17.26-1.94,26-2.28q10.16-.4,20.23.14t20.16,2.08A178.31,178.31,0,0,1,282,309a165,165,0,0,1,29.81,13.85v0l.48.28a20.22,20.22,0,0,0,2,1.11,7.1,7.1,0,0,0,5,.27,6.93,6.93,0,0,0,3.87-3,7.25,7.25,0,0,0,.91-5,7,7,0,0,0-2.66-4.28,25,25,0,0,0-2.18-1.38l-.27-.17h0a173.9,173.9,0,0,0-16.6-8.72A179.36,179.36,0,0,0,284.89,295,196.94,196.94,0,0,0,252,287Z"/></g><rect class="cls-2" width="491.52" height="491.52"/></svg>