<svg id="Layer_1" data-name="Layer 1" xmlns="http://www.w3.org/2000/svg" viewBox="0 0 113.01 7.63"><defs><style>.cls-1{fill:#fff;}</style></defs><title>tim knott wordmark-white</title><path class="cls-1" d="M90.21,190.93l-2.36-3.25-.88.92v2.33H85.29V183.3H87v3.33l3.09-3.33h2L89,186.54l3.25,4.39Z" transform="translate(-34.49 -183.3)"/><path class="cls-1" d="M104.59,190.93l-3.7-4.85v4.85H99.24V183.3h1.55l3.57,4.7v-4.7H106v7.63Z" transform="translate(-34.49 -183.3)"/><path class="cls-1" d="M131.84,184.85v6.08h-1.68v-6.08h-2.32V183.3h6.32v1.55Z" transform="translate(-34.49 -183.3)"/><path class="cls-1" d="M145.17,184.85v6.08h-1.68v-6.08h-2.32V183.3h6.32v1.55Z" transform="translate(-34.49 -183.3)"/><path class="cls-1" d="M116.92,190.91a3.77,3.77,0,0,1-3.9-3.77v0a3.81,3.81,0,0,1,3.92-3.8,3.76,3.76,0,0,1,3.89,3.78v0A3.79,3.79,0,0,1,116.92,190.91Zm2.22-3.8a2.23,2.23,0,0,0-2.22-2.31,2.2,2.2,0,0,0-2.21,2.29v0a2.24,2.24,0,0,0,2.23,2.31,2.19,2.19,0,0,0,2.2-2.28Z" transform="translate(-34.49 -183.3)"/><polygon class="cls-1" points="86.12 0.02 78.54 7.38 78.54 7.61 78.76 7.61 86.35 0.25 86.35 0.02 86.12 0.02"/><path class="cls-1" d="M38.49,184.85v6.08H36.81v-6.08H34.49V183.3h6.32v1.55Z" transform="translate(-34.49 -183.3)"/><path class="cls-1" d="M47.82,190.93V183.3H49.5v7.63Z" transform="translate(-34.49 -183.3)"/><path class="cls-1" d="M62.47,190.93v-5l-2.15,3.26h0L58.15,186v5H56.5V183.3h1.81l2,3.23,2-3.23h1.81v7.63Z" transform="translate(-34.49 -183.3)"/></svg>