<svg id="Layer_1" data-name="Layer 1" xmlns="http://www.w3.org/2000/svg" viewBox="0 0 230.54 46.35"><defs><style>.cls-1{fill:#39b54a;}</style></defs><title>UI</title><path d="M908.84,555.42c-1.24,4.38-4.54,6.63-9.29,6.63-4.16,0-7.21-1.78-8.74-5.24l-10.43.81c2.14,9.07,9,13.69,19,13.69,11,0,18.4-5.52,19.76-16.69Z" transform="translate(-879.66 -524.95)"/><polygon points="57.82 28.25 45.9 45.64 57.31 45.64 67.61 29.99 77.84 45.64 89.58 45.64 76.73 26.78 57.82 28.25"/><polygon points="125.03 22.52 113.78 46.05 120.18 46.05 131.68 22.01 125.03 22.52"/><path d="M1079.43,542.21v8.89c0,7.23-3.72,10.95-9.85,10.95s-9.84-3.85-9.84-11.28v-7l-10,.78V551c0,13.43,7.49,20.28,19.75,20.28s20-6.78,20-20.6v-9.28Z" transform="translate(-879.66 -524.95)"/><path class="cls-1" d="M890.81,556.81l-10.43.81a28.61,28.61,0,0,1-.72-6.59V525h10v25.82A15,15,0,0,0,890.81,556.81Zm28.62-6.1V525h-10V551.1a16.18,16.18,0,0,1-.55,4.32l10.34-.8A32.27,32.27,0,0,0,919.43,550.71Zm33.9-3.46L968.59,525H957.18l-9.65,14.8L938,525H926.21l15.26,22.43-4,5.82,18.91-1.47ZM1021.85,525h-6.41l-10.75,22.48,6.65-.52Zm67.62,0h-10v17.26l10-.78Zm-29.73,0h-10v19.56l10-.78Zm50.46,0h-10V540.6l10-.78Z" transform="translate(-879.66 -524.95)"/><polygon points="220.5 15.65 220.5 45.64 230.54 45.64 230.54 14.87 220.5 15.65"/></svg>