<svg id="Layer_1" data-name="Layer 1" xmlns="http://www.w3.org/2000/svg" viewBox="0 0 370.75 74"><defs><style>.cls-1{fill:#39b54a;}</style></defs><title>UI</title><path d="M652.18,568.08c-1.4,8.45-6.89,12.79-15.21,12.79-7.41,0-12.58-3.57-14.61-10.5l-16.16,1.24c2.74,15.84,13.85,23.9,30.57,23.9,18.19,0,30.11-9.44,31.51-28.67Z" transform="translate(-605.53 -522)"/><path class="cls-1" d="M621.4,563V522.21H605.53v41.24a47.54,47.54,0,0,0,.67,8.16l16.16-1.24A26.23,26.23,0,0,1,621.4,563Z" transform="translate(-605.53 -522)"/><path class="cls-1" d="M668.42,562.93V522.21H652.54v41.34a27.83,27.83,0,0,1-.36,4.53l16.1-1.24C668.37,565.58,668.42,564.28,668.42,562.93Z" transform="translate(-605.53 -522)"/><polygon class="cls-1" points="95.68 0.21 79.8 0.21 79.8 43.54 95.68 42.32 95.68 0.21"/><polygon points="79.8 43.54 79.8 72.38 95.68 72.38 95.68 42.32 79.8 43.54"/><polygon points="157.15 37.6 139.73 74 150.04 74 167.85 36.78 157.15 37.6"/><polygon class="cls-1" points="185.44 0 175.13 0 157.15 37.6 167.85 36.78 185.44 0"/><polygon class="cls-1" points="244.97 0.21 229.09 0.21 229.09 32.08 244.97 30.86 244.97 0.21"/><polygon class="cls-1" points="291.98 0.21 276.1 0.21 276.1 28.47 291.98 27.25 291.98 0.21"/><path d="M881.63,550.47v13.08c0,11.44-5.88,17.32-15.57,17.32s-15.57-6.08-15.57-17.84V552.86l-15.88,1.22v9.37c0,21.24,11.86,32.06,31.24,32.06s31.66-10.72,31.66-32.58V549.25Z" transform="translate(-605.53 -522)"/><polygon class="cls-1" points="369.72 0.21 351.67 0.21 336.42 23.61 321.26 0.21 302.7 0.21 319.65 25.13 354.5 22.45 369.72 0.21"/><polygon points="354.5 22.45 319.65 25.13 326.83 35.67 301.67 72.38 319.71 72.38 336 47.63 352.19 72.38 370.75 72.38 345.59 35.47 354.5 22.45"/></svg>