<svg id="Layer_1" data-name="Layer 1" xmlns="http://www.w3.org/2000/svg" viewBox="0 0 438.45 47.36"><defs><style>.cls-1{fill:#ed1e79;}</style></defs><title>Web-Design</title><polygon points="15.63 46.9 24.4 46.9 26.96 39.49 13.47 40.53 15.63 46.9"/><polygon points="42.11 38.31 45.07 46.9 53.84 46.9 57.14 37.15 42.11 38.31"/><polygon points="86.94 34.84 76.94 35.62 76.94 46.58 111.8 46.58 111.8 37.61 86.94 37.61 86.94 34.84"/><path d="M889.07,546.7a4.44,4.44,0,0,1,.75,2.59v.14c0,3.4-2.68,5-7.13,5h-12v-6.28l-9.81.76v14.35h21.78c10.33,0,17.14-4.19,17.14-12.56v-.13a12.47,12.47,0,0,0-.8-4.62Z" transform="translate(-740.14 -516.65)"/><path d="M959.39,541.25c-.35,7.68-5.8,12.89-13.77,12.89h-7.78V542.92l-10.07.78v19.53h17.85c14.36,0,24.28-10,24.33-22.8Z" transform="translate(-740.14 -516.65)"/><polygon points="248.79 28 270.38 28 270.38 20.64 238.78 23.09 238.78 46.58 273.65 46.58 273.65 37.61 248.79 37.61 248.79 28"/><path d="M1041.33,535.82c-1-.25-1.86-.48-2.66-.71l-16.16,1.25c2.09,4.7,7.18,6.58,14.11,8.36,7.66,2,9.23,3.27,9.23,5.82v.13c0,2.68-2.49,4.32-6.61,4.32-5.23,0-9.55-2.16-13.67-5.56l-5.95,7.13a29.14,29.14,0,0,0,19.42,7.32c9.88,0,16.82-5.1,16.82-14.19v-.13C1055.86,541.58,1050.62,538.24,1041.33,535.82Z" transform="translate(-740.14 -516.65)"/><polygon points="324.94 16.41 324.94 46.58 335.02 46.58 335.02 15.63 324.94 16.41"/><path d="M1120.23,530.59l1.59-1.92-3.72.29C1118.81,529.45,1119.51,530,1120.23,530.59Z" transform="translate(-740.14 -516.65)"/><path d="M1108.33,545.57h10.13v6.54a16.07,16.07,0,0,1-9.48,2.74c-8.11,0-13.87-6.14-13.87-14.52v-.13a14.93,14.93,0,0,1,3.57-9.74l-12.41,1a24.13,24.13,0,0,0-1.69,8.9v.13c0,13.54,9.81,23.55,24.07,23.55a29.71,29.71,0,0,0,19.56-7.26V536.87h-19.88Z" transform="translate(-740.14 -516.65)"/><polygon points="428.5 8.39 428.5 28.98 413.71 9.54 397.76 10.78 397.76 46.58 407.7 46.58 407.7 17.47 429.88 46.58 438.45 46.58 438.45 7.62 428.5 8.39"/><path class="cls-1" d="M797.28,553.8l-15,1.17-7.38-21.37-7.77,22.54-13.49,1.05-13.47-39.75h10.79l9.49,31,10.27-31.13h8.63l10.27,31.13,9.49-31h10.53Zm29.8-9.15h21.59v-9H827.08V526.4h24.53v-9H817.07v34.83l10-.77Zm43.64,3.47-9.81.76V517.44h21.26c9.35,0,15.11,4.64,15.11,11.84v.13c0,5.17-2.75,8-6,9.88,3.76,1.44,6.49,3.41,7.77,6.63l-10,.78c-1.05-1.51-3.22-2.38-6.71-2.38H870.72Zm0-12.17H880c4.45,0,7.26-1.44,7.26-4.84V531c0-3-2.36-4.71-6.61-4.71h-9.94Zm67.12-9.42h7.78c8.25,0,13.81,5.69,13.81,13.8v.13c0,.27,0,.53,0,.79l10.56-.82s0-.06,0-.1v-.13c0-12.88-10-22.76-24.34-22.76H927.77V543.7l10.07-.78Zm72.68,9.16H988.93V526.4h24.53v-9H978.92v22.3l31.6-2.45Zm20.94-5.89v-.13c0-2.22,2-4,5.88-4s7.85,1.7,11.91,4.51l5.23-7.58a26.49,26.49,0,0,0-17-5.83c-9.35,0-16,5.5-16,13.81v.13a13.64,13.64,0,0,0,1.06,5.64l16.16-1.25C1033,533.52,1031.46,532.44,1031.46,529.8Zm43.7-12.36h-10.08v15.63l10.08-.78Zm33.1,8.5a15.93,15.93,0,0,1,9.84,3l3.72-.29,4.76-5.74c-4.78-4-9.75-6.28-18-6.28a23.55,23.55,0,0,0-22.32,14.78l12.41-1A12.65,12.65,0,0,1,1108.26,525.94Zm38.93-8.5h-9.29v10l15.95-1.24Zm31.4,0h-9.95v7.61l9.95-.77Z" transform="translate(-740.14 -516.65)"/></svg>