<svg id="Layer_1" data-name="Layer 1" xmlns="http://www.w3.org/2000/svg" viewBox="0 0 491.52 491.52"><defs><style>.cls-1{fill:#fff;}.cls-2{fill:none;}</style></defs><title>display</title><g id="Layer_1-2" data-name="Layer_1"><path class="cls-1" d="M323.41,299a35.88,35.88,0,0,1-8.24,25.54,36.41,36.41,0,0,1-23.59,13.08c-.53.07-1.11.13-1.72.17a33.27,33.27,0,0,1-23.62-7.3,32.91,32.91,0,0,1-11.91-21.59c-.06-.52-.12-1.08-.16-1.69a35.85,35.85,0,0,1,8.24-25.54A36.44,36.44,0,0,1,286,268.54a34.53,34.53,0,0,1,8.68,0c1,.14,2.05.32,3.06.54V195.55L225.62,209c0,7.82,0,24.4,0,49.35,0,5.9,0,11.78,0,52.36A35.9,35.9,0,0,1,217.34,336a36.49,36.49,0,0,1-23.58,13.09c-.51.06-1.06.12-1.65.16a33.29,33.29,0,0,1-23.7-7.31,32.89,32.89,0,0,1-11.91-21.65c-.06-.49-.12-1-.16-1.62a35.87,35.87,0,0,1,8.21-25.55,36.47,36.47,0,0,1,23.6-13.07,34.52,34.52,0,0,1,8.68,0,30.86,30.86,0,0,1,3,.54v-118l3.2-.55,115.67-19.75h0l.11,0,4.59-.92v5.18h0L323.28,298l0,.21h0a6.26,6.26,0,0,1,.09.75Zm-14.15,20.68a28.25,28.25,0,0,0,6.5-20.11v-.12h0c0-.06,0,0,0-.13l-.09-.87.15-147.82L207.56,169v122.5l-5.29-2.17a25.72,25.72,0,0,0-6.43-1.7,26.82,26.82,0,0,0-6.76,0A28.75,28.75,0,0,0,170.46,298,28.28,28.28,0,0,0,164,318.11c0,.37.07.79.13,1.25A25.21,25.21,0,0,0,173.24,336a25.7,25.7,0,0,0,18.3,5.6c.38,0,.81-.07,1.29-.13a28.8,28.8,0,0,0,18.6-10.33,28.27,28.27,0,0,0,6.48-20.1l0-.29c0-5.74,0-23.35,0-52.43,0-5.91,0-11.84,0-52.52v-3.18l3.15-.59,79.8-14.85,4.53-.84V280l-5.28-2.16a25.4,25.4,0,0,0-6.42-1.69,27.08,27.08,0,0,0-6.79,0,28.72,28.72,0,0,0-18.61,10.32,28.28,28.28,0,0,0-6.5,20.11c0,.4.07.85.13,1.33a25.24,25.24,0,0,0,9.12,16.58,25.69,25.69,0,0,0,18.22,5.59c.41,0,.87-.07,1.36-.14a28.73,28.73,0,0,0,18.61-10.32Z"/><path class="cls-1" d="M245.76,73A172.79,172.79,0,1,0,368,123.57,172.26,172.26,0,0,0,245.76,73ZM118.14,118.14A180.49,180.49,0,1,1,65.28,245.76,179.92,179.92,0,0,1,118.14,118.14Z"/></g><rect class="cls-2" width="491.52" height="491.52"/></svg>