<svg id="Layer_1" data-name="Layer 1" xmlns="http://www.w3.org/2000/svg" viewBox="0 0 575.6 46.49"><defs><style>.cls-1{fill:#29abe2;}</style></defs><title>Graphic-Design</title><path d="M710.29,559.92l-24.65,1.91a25.93,25.93,0,0,0,10.09,1.95A28.74,28.74,0,0,0,710.29,559.92Z" transform="translate(-672.1 -517.29)"/><polygon points="52.33 45.72 62.22 45.72 62.22 40.76 52.33 41.53 52.33 45.72"/><polygon points="75.61 39.72 79.62 45.72 91.18 45.72 86.5 38.88 75.61 39.72"/><polygon points="94.91 45.72 104.99 45.72 108.47 37.17 98.2 37.97 94.91 45.72"/><polygon points="128.1 35.64 132.21 45.72 142.55 45.72 137.94 34.88 128.1 35.64"/><polygon points="149.49 33.98 149.49 45.72 159.38 45.72 159.38 33.22 149.49 33.98"/><polygon points="192.38 45.72 202.27 45.72 202.27 29.89 192.38 30.65 192.38 45.72"/><polygon points="220.5 28.47 220.5 45.72 230.39 45.72 230.39 27.7 220.5 28.47"/><polygon points="241.63 26.83 241.63 45.72 251.52 45.72 251.52 26.06 241.63 26.83"/><path d="M956.24,554.66c-7.27,0-12.42-5.71-13-12.83l-10.31.8a22.63,22.63,0,0,0,23,21.15c8.67,0,13.8-3.08,18.43-8l-6.3-6.35C964.52,552.61,961.38,554.66,956.24,554.66Z" transform="translate(-672.1 -517.29)"/><path d="M1031.57,535a15.09,15.09,0,0,1,1,5.57v.12c0,8-5.45,13.42-13.54,13.42h-7.64V536.54l-9.89.77V563H1019c14.12,0,23.88-9.82,23.88-22.47v-.13a22.79,22.79,0,0,0-.85-6.25Z" transform="translate(-672.1 -517.29)"/><polygon points="389.44 27.48 410.63 27.48 410.63 18.68 389.44 18.68 389.44 15.35 379.62 16.11 379.62 45.72 413.84 45.72 413.84 36.92 389.44 36.92 389.44 27.48"/><path d="M1120.75,530.58l1.85-2.68-5.58.44A32.88,32.88,0,0,1,1120.75,530.58Z" transform="translate(-672.1 -517.29)"/><path d="M1113,536.11c-7.77-2-9.69-3-9.69-5.91v-.13a3.71,3.71,0,0,1,.07-.67l-9.86.76c0,.27,0,.53,0,.81v.13c0,8.92,5.84,11.43,14.9,13.74,7.51,1.92,9.05,3.21,9.05,5.71v.13c0,2.63-2.44,4.24-6.48,4.24-5.14,0-9.38-2.12-13.42-5.46l-5.85,7a28.6,28.6,0,0,0,19.07,7.19c9.7,0,16.51-5,16.51-13.93v-.13C1127.24,541.76,1122.1,538.48,1113,536.11Z" transform="translate(-672.1 -517.29)"/><polygon points="464.19 9.55 464.19 45.72 474.08 45.72 474.08 8.78 464.19 9.55"/><path d="M1178.73,545.67h10v6.42a15.79,15.79,0,0,1-9.31,2.7c-8,0-13.62-6-13.62-14.25v-.13c0-7.64,5.72-14,12.91-14,5.2,0,8.28,1.67,11.75,4.56l6.23-7.51c-.49-.42-1-.81-1.49-1.19l-33.79,2.62a23.22,23.22,0,0,0-5.94,15.65v.12c0,13.3,9.63,23.12,23.63,23.12a29.15,29.15,0,0,0,19.19-7.13V537.13h-19.52Z" transform="translate(-672.1 -517.29)"/><path class="cls-1" d="M710.29,559.92l-24.65,1.91c-8.32-3.49-13.54-11.39-13.54-21.17v-.12a23.07,23.07,0,0,1,23.57-23.25c8.09,0,13,2.19,17.65,6.17L707.1,531c-3.47-2.89-6.55-4.56-11.75-4.56-7.2,0-12.91,6.36-12.91,14v.13c0,8.21,5.65,14.25,13.61,14.25a15.75,15.75,0,0,0,9.31-2.7v-6.42h-10v-8.54h19.52v19.52A30.93,30.93,0,0,1,710.29,559.92Zm48.31-3.75-10.89.84-5.62-8.38h-7.77v9.42l-9.89.77V518.06H745c10.6,0,16.95,5.59,16.95,14.84V533c0,7.26-3.91,11.82-9.63,13.94Zm-6.68-22.76c0-4.24-3-6.42-7.77-6.42h-9.83v12.9h10c4.82,0,7.58-2.57,7.58-6.35ZM810,552.17l-9.83.77h-19l-.63,1.53-10.27.8,16-37.52h9.12Zm-13.37-8-6-14.58-6,14.58Zm34.81,6.31-9.89.77V518.06H840c10.72,0,17.21,6.36,17.21,15.54v.13c0,10.4-8.09,15.8-18.17,15.8h-7.51Zm0-9.78h7.83c4.94,0,7.83-3,7.83-6.81v-.13c0-4.43-3.08-6.8-8-6.8h-7.64Zm71-22.67H892.6v17.79H874.37V518.06h-9.89V548l9.89-.77V545H892.6v.79l9.89-.77Zm21.13,0h-9.89v26.06l9.89-.77Zm19.59,22.48v-.13c0-7.71,5.45-14,13-14,4.49,0,8,1.93,11.49,5.07l6.3-7.25c-4.18-4.11-9.25-6.94-17.73-6.94-13.8,0-23.43,10.47-23.43,23.25v.12c0,.67,0,1.32.08,2l10.31-.8C943.23,541.4,943.21,541,943.21,540.54ZM1011.4,527H1019c6,0,10.59,3.1,12.53,8l10.5-.81c-2.65-9.46-11.35-16.1-23-16.1h-17.53v19.25l9.89-.77Zm50.15-.13h24.08v-8.8h-33.91v15.35l9.83-.77Zm47.52-.71a17.51,17.51,0,0,1,8,2.19l5.58-.44,3.29-4.76a26,26,0,0,0-16.7-5.72c-8.87,0-15.27,5.05-15.69,12.74l9.86-.76C1103.74,527.54,1105.68,526.15,1109.07,526.15Zm37.11-8.09h-9.89v8.78l9.89-.77Zm32.81-.77a23.47,23.47,0,0,0-17.62,7.6l33.79-2.62C1190.9,519.05,1186.23,517.29,1179,517.29Zm37.89.77h-9.12v3.23l10.93-.85Zm30.82,0h-9.76V519l9.76-.76Z" transform="translate(-672.1 -517.29)"/><polygon points="565.84 1.66 565.84 28.45 546.59 3.15 535.66 4 535.66 45.72 545.42 45.72 545.42 17.14 567.18 45.72 575.6 45.72 575.6 0.9 565.84 1.66"/></svg>